<svg width="117" height="36" viewBox="0 0 117 36" fill="none" xmlns="http://www.w3.org/2000/svg">
<g clip-path="url(#clip0_3082_1350)">
<path d="M30.3853 9.95073L16.9025 2.16602L3.42011 9.95029L3.41992 25.5186L16.9027 33.3032L30.3853 25.519L30.3853 9.95073Z" fill="white"/>
<path d="M3.4209 22.4034L16.9033 14.6191L30.386 22.4039L16.9035 30.1881L3.4209 22.4034Z" fill="#001A3D"/>
<path d="M30.3859 25.5166L30.3858 22.4033L16.9033 30.1875L16.9034 33.3009L30.3859 25.5166Z" fill="white"/>
<path d="M16.9037 33.3003L3.4209 25.5157L3.42096 22.4023L16.9036 30.187L16.9037 33.3003Z" fill="white"/>
<path d="M3.4209 16.1769L16.9033 8.39258L30.386 16.1772L16.9035 23.9615L3.4209 16.1769Z" fill="#001A3D"/>
<path d="M30.3859 19.2901L30.3858 16.1768L16.9033 23.961L16.9034 27.0743L30.3859 19.2901Z" fill="white"/>
<path d="M16.9037 27.0737L3.4209 19.2891L3.42096 16.1758L16.9036 23.9604L16.9037 27.0737Z" fill="white"/>
<path d="M3.4209 9.94932L16.9033 2.16504L30.386 9.94975L16.9035 17.734L3.4209 9.94932Z" fill="white"/>
<path d="M30.3859 13.0625L30.3858 9.94922L16.9033 17.7334L16.9034 20.8468L30.3859 13.0625Z" fill="white"/>
<path d="M16.9037 20.8462L3.4209 13.0616L3.42096 9.94824L16.9036 17.7329L16.9037 20.8462Z" fill="white"/>
</g>
<path d="M39.4162 27.7334V8.3634H43.4462V27.7334H39.4162ZM46.595 27.7334V13.5374H50.235V15.2794C50.599 14.5861 51.1277 14.0747 51.821 13.7454C52.5144 13.3987 53.3117 13.2254 54.213 13.2254C55.2877 13.2254 56.2237 13.4507 57.021 13.9014C57.8357 14.3521 58.4684 14.9847 58.919 15.7994C59.3697 16.5967 59.595 17.5327 59.595 18.6074V27.7334H55.695V19.4394C55.695 18.6247 55.4524 17.9747 54.967 17.4894C54.4817 16.9867 53.8577 16.7354 53.095 16.7354C52.3324 16.7354 51.7084 16.9867 51.223 17.4894C50.7377 17.9747 50.495 18.6247 50.495 19.4394V27.7334H46.595ZM63.8755 27.7334V16.9174H61.4835V13.5374H63.8755V13.3294C63.8755 11.6481 64.3608 10.3481 65.3315 9.4294C66.3195 8.51073 67.6975 8.0514 69.4655 8.0514C69.9855 8.0514 70.4448 8.09473 70.8435 8.1814V11.5094C70.5142 11.4574 70.2282 11.4314 69.9855 11.4314C68.5122 11.4314 67.7755 12.0641 67.7755 13.3294V13.5374H76.1735V27.7334H72.2735V16.9174H67.7755V27.7334H63.8755ZM78.7396 27.7334V13.5374H82.3796V15.2794C82.7436 14.5861 83.2722 14.0747 83.9656 13.7454C84.6589 13.3987 85.4562 13.2254 86.3576 13.2254C87.4322 13.2254 88.3682 13.4507 89.1656 13.9014C89.9802 14.3521 90.6129 14.9847 91.0636 15.7994C91.5142 16.5967 91.7396 17.5327 91.7396 18.6074V27.7334H87.8396V19.4394C87.8396 18.6247 87.5969 17.9747 87.1116 17.4894C86.6262 16.9867 86.0022 16.7354 85.2396 16.7354C84.4769 16.7354 83.8529 16.9867 83.3676 17.4894C82.8822 17.9747 82.6396 18.6247 82.6396 19.4394V27.7334H78.7396ZM94.304 12.2634V8.3634H98.204V12.2634H94.304ZM94.304 27.7334V13.5374H98.204V27.7334H94.304ZM99.9399 27.7334L104.906 20.6094L99.9139 13.5374H104.438L107.194 17.5934L109.95 13.5374H114.474L109.482 20.6094L114.422 27.7334H109.924L107.194 23.6254L104.464 27.7334H99.9399Z" fill="white"/>
<defs>
<clipPath id="clip0_3082_1350">
<rect width="31.2" height="31.2" fill="white" transform="translate(1.2998 2.13379)"/>
</clipPath>
</defs>
</svg>
