<svg width="117" height="36" viewBox="0 0 117 36" fill="none" xmlns="http://www.w3.org/2000/svg">
<g clip-path="url(#clip0_493_938)">
<path d="M30.3853 9.94878L16.9025 2.16406L3.42011 9.94834L3.41992 25.5166L16.9027 33.3013L30.3853 25.5171L30.3853 9.94878Z" fill="#2920D2"/>
<path d="M3.4209 22.4015L16.9033 14.6172L30.386 22.4019L16.9035 30.1861L3.4209 22.4015Z" fill="#001A3D"/>
<path d="M30.3859 25.5156L30.3858 22.4023L16.9033 30.1866L16.9034 33.2999L30.3859 25.5156Z" fill="#2920D2"/>
<path d="M16.9037 33.2984L3.4209 25.5137L3.42096 22.4004L16.9036 30.185L16.9037 33.2984Z" fill="#2920D2"/>
<path d="M3.4209 16.1749L16.9033 8.39062L30.386 16.1753L16.9035 23.9595L3.4209 16.1749Z" fill="#001A3D"/>
<path d="M30.3859 19.2891L30.3858 16.1758L16.9033 23.9601L16.9034 27.0733L30.3859 19.2891Z" fill="#2920D2"/>
<path d="M16.9037 27.0717L3.4209 19.2872L3.42096 16.1738L16.9036 23.9585L16.9037 27.0717Z" fill="#2920D2"/>
<path d="M3.4209 9.94834L16.9033 2.16406L30.386 9.94878L16.9035 17.733L3.4209 9.94834Z" fill="#2920D2"/>
<path d="M30.3859 13.0625L30.3858 9.94922L16.9033 17.7334L16.9034 20.8468L30.3859 13.0625Z" fill="#2920D2"/>
<path d="M16.9037 20.8452L3.4209 13.0606L3.42096 9.94727L16.9036 17.7319L16.9037 20.8452Z" fill="#2920D2"/>
</g>
<path d="M39.4162 27.7344V8.36437H43.4462V27.7344H39.4162ZM46.595 27.7344V13.5384H50.235V15.2804C50.599 14.587 51.1277 14.0757 51.821 13.7464C52.5144 13.3997 53.3117 13.2264 54.213 13.2264C55.2877 13.2264 56.2237 13.4517 57.021 13.9024C57.8357 14.353 58.4684 14.9857 58.919 15.8004C59.3697 16.5977 59.595 17.5337 59.595 18.6084V27.7344H55.695V19.4404C55.695 18.6257 55.4524 17.9757 54.967 17.4904C54.4817 16.9877 53.8577 16.7364 53.095 16.7364C52.3324 16.7364 51.7084 16.9877 51.223 17.4904C50.7377 17.9757 50.495 18.6257 50.495 19.4404V27.7344H46.595ZM63.8755 27.7344V16.9184H61.4835V13.5384H63.8755V13.3304C63.8755 11.649 64.3608 10.349 65.3315 9.43037C66.3195 8.51171 67.6975 8.05238 69.4655 8.05238C69.9855 8.05238 70.4448 8.09571 70.8435 8.18238V11.5104C70.5142 11.4584 70.2282 11.4324 69.9855 11.4324C68.5122 11.4324 67.7755 12.065 67.7755 13.3304V13.5384H76.1735V27.7344H72.2735V16.9184H67.7755V27.7344H63.8755ZM78.7396 27.7344V13.5384H82.3796V15.2804C82.7436 14.587 83.2722 14.0757 83.9656 13.7464C84.6589 13.3997 85.4562 13.2264 86.3576 13.2264C87.4322 13.2264 88.3682 13.4517 89.1656 13.9024C89.9802 14.353 90.6129 14.9857 91.0636 15.8004C91.5142 16.5977 91.7396 17.5337 91.7396 18.6084V27.7344H87.8396V19.4404C87.8396 18.6257 87.5969 17.9757 87.1116 17.4904C86.6262 16.9877 86.0022 16.7364 85.2396 16.7364C84.4769 16.7364 83.8529 16.9877 83.3676 17.4904C82.8822 17.9757 82.6396 18.6257 82.6396 19.4404V27.7344H78.7396ZM94.304 12.2644V8.36437H98.204V12.2644H94.304ZM94.304 27.7344V13.5384H98.204V27.7344H94.304ZM99.9399 27.7344L104.906 20.6104L99.9139 13.5384H104.438L107.194 17.5944L109.95 13.5384H114.474L109.482 20.6104L114.422 27.7344H109.924L107.194 23.6264L104.464 27.7344H99.9399Z" fill="white"/>
<defs>
<clipPath id="clip0_493_938">
<rect width="31.2" height="31.2" fill="white" transform="translate(1.2998 2.13281)"/>
</clipPath>
</defs>
</svg>
