<svg width="117" height="36" viewBox="0 0 117 36" fill="none" xmlns="http://www.w3.org/2000/svg">
<g clip-path="url(#clip0_446_702)">
<path d="M30.3853 9.95073L16.9025 2.16602L3.42011 9.95029L3.41992 25.5186L16.9027 33.3032L30.3853 25.519L30.3853 9.95073Z" fill="#2920D2"/>
<path d="M3.4209 22.4034L16.9033 14.6191L30.386 22.4039L16.9035 30.1881L3.4209 22.4034Z" fill="white"/>
<path d="M30.3859 25.5166L30.3858 22.4033L16.9033 30.1875L16.9034 33.3009L30.3859 25.5166Z" fill="#2920D2"/>
<path d="M16.9037 33.3003L3.4209 25.5157L3.42096 22.4023L16.9036 30.187L16.9037 33.3003Z" fill="#2920D2"/>
<path d="M3.4209 16.1769L16.9033 8.39258L30.386 16.1772L16.9035 23.9615L3.4209 16.1769Z" fill="white"/>
<path d="M30.3859 19.2901L30.3858 16.1768L16.9033 23.961L16.9034 27.0743L30.3859 19.2901Z" fill="#2920D2"/>
<path d="M16.9037 27.0737L3.4209 19.2891L3.42096 16.1758L16.9036 23.9604L16.9037 27.0737Z" fill="#2920D2"/>
<path d="M3.4209 9.94932L16.9033 2.16504L30.386 9.94975L16.9035 17.734L3.4209 9.94932Z" fill="#2920D2"/>
<path d="M30.3859 13.0625L30.3858 9.94922L16.9033 17.7334L16.9034 20.8468L30.3859 13.0625Z" fill="#2920D2"/>
<path d="M16.9037 20.8462L3.4209 13.0616L3.42096 9.94824L16.9036 17.7329L16.9037 20.8462Z" fill="#2920D2"/>
</g>
<path d="M39.4162 27.7334V8.3634H43.4462V27.7334H39.4162ZM46.595 27.7334V13.5374H50.235V16.3454L50.027 15.7214C50.3564 14.8721 50.885 14.2481 51.613 13.8494C52.3584 13.4334 53.225 13.2254 54.213 13.2254C55.2877 13.2254 56.2237 13.4507 57.021 13.9014C57.8357 14.3521 58.4684 14.9847 58.919 15.7994C59.3697 16.5967 59.595 17.5327 59.595 18.6074V27.7334H55.695V19.4394C55.695 18.8847 55.5824 18.4081 55.357 18.0094C55.149 17.6107 54.8457 17.2987 54.447 17.0734C54.0657 16.8481 53.615 16.7354 53.095 16.7354C52.5924 16.7354 52.1417 16.8481 51.743 17.0734C51.3444 17.2987 51.0324 17.6107 50.807 18.0094C50.599 18.4081 50.495 18.8847 50.495 19.4394V27.7334H46.595ZM63.8755 27.7334V16.9174H61.4835V13.5374H63.8755V13.3294C63.8755 12.2027 64.0922 11.2494 64.5255 10.4694C64.9762 9.6894 65.6175 9.0914 66.4495 8.6754C67.2815 8.2594 68.2868 8.0514 69.4655 8.0514C69.6908 8.0514 69.9335 8.06873 70.1935 8.1034C70.4535 8.12073 70.6702 8.14673 70.8435 8.1814V11.5094C70.6702 11.4747 70.5142 11.4574 70.3755 11.4574C70.2542 11.4401 70.1242 11.4314 69.9855 11.4314C69.2575 11.4314 68.7028 11.5961 68.3215 11.9254C67.9575 12.2374 67.7755 12.7054 67.7755 13.3294V13.5374H73.4175V16.9174H67.7755V27.7334H63.8755ZM72.2735 27.7334V13.5374H76.1735V27.7334H72.2735ZM78.7396 27.7334V13.5374H82.3796V16.3454L82.1716 15.7214C82.5009 14.8721 83.0296 14.2481 83.7576 13.8494C84.5029 13.4334 85.3696 13.2254 86.3576 13.2254C87.4322 13.2254 88.3682 13.4507 89.1656 13.9014C89.9802 14.3521 90.6129 14.9847 91.0636 15.7994C91.5142 16.5967 91.7396 17.5327 91.7396 18.6074V27.7334H87.8396V19.4394C87.8396 18.8847 87.7269 18.4081 87.5016 18.0094C87.2936 17.6107 86.9902 17.2987 86.5916 17.0734C86.2102 16.8481 85.7596 16.7354 85.2396 16.7354C84.7369 16.7354 84.2862 16.8481 83.8876 17.0734C83.4889 17.2987 83.1769 17.6107 82.9516 18.0094C82.7436 18.4081 82.6396 18.8847 82.6396 19.4394V27.7334H78.7396ZM94.304 27.7334V13.5374H98.204V27.7334H94.304ZM94.304 12.2634V8.3634H98.204V12.2634H94.304ZM99.9399 27.7334L104.906 20.6094L99.9139 13.5374H104.438L108.182 19.0494H106.206L109.95 13.5374H114.474L109.482 20.6094L114.422 27.7334H109.924L106.258 22.2214H108.13L104.464 27.7334H99.9399Z" fill="#001A3D"/>
<defs>
<clipPath id="clip0_446_702">
<rect width="31.2" height="31.2" fill="white" transform="translate(1.2998 2.13379)"/>
</clipPath>
</defs>
</svg>
